Simulation
nRows=23
nColumns=15
endheader
time  TH_x TH_y TH_z SC_y  SC_z  SC_x  AC_y  AC_z  AC_x  GH_y  GH_z  GH_yy  EL_x  PS_y
5.382082397003745  0.000000  0.000000  0.000000  -36.45664749344761  12.160860140674535  19.807524550566455  55.285098239340975  18.3817953029261  14.353921594810064  -0.23726512844915357  59.43936935193592  3.606835779257604  13.469994368174145  120.000000
5.422247191011236  0.000000  0.000000  0.000000  -36.42969988739647  12.07158062224667  19.870224935691077  55.27981614069839  18.321215882855366  14.153185144012  -0.06429890318420392  59.42583056435461  3.382585200810657  13.490438704710066  120.000000
5.4624119850187265  0.000000  0.000000  0.000000  -36.26330497208758  11.965876753921085  19.78764258462479  55.249720700166954  18.245927384605142  13.861707223252942  0.13838910036801952  59.15549560499231  3.2472871305746907  13.430410192827958  120.000000
5.502576779026217  0.000000  0.000000  0.000000  -35.95685520281432  11.842653953229581  19.555068754167117  55.19902316854558  18.153808773863815  13.47867557657579  0.368052537915917  58.6093677376322  3.1890432309327346  13.306178058163594  120.000000
5.542741573033708  0.000000  0.000000  0.000000  -35.51340689122078  11.699404688280747  19.170602738485243  55.1330014364549  18.0423860216001  13.005782619103368  0.620251962513412  57.77149915278296  3.1926618252687464  13.14009118024788  120.000000
5.582906367041199  0.000000  0.000000  0.000000  -34.94051862557044  11.532464690170354  18.63535169179093  55.05740268124555  17.90863401437086  12.447224732553602  0.8901513485964087  56.631477285913434  3.242393981709019  12.956486606617176  120.000000
5.623071161048689  0.000000  0.000000  0.000000  -34.250718537519774  11.337293884527444  17.95371275304191  54.97767151283255  17.74903260943447  11.809843170416777  1.1740237334519723  55.18659701058991  3.3246433938415496  12.777565179305524  120.000000
5.66323595505618  0.000000  0.000000  0.000000  -33.461407690601504  11.108838927498693  17.13370871432369  54.89831868283301  17.559799943733278  11.103237298318954  1.4705113679304636  53.443461961459406  3.4301625042931407  12.620087591936247  120.000000
5.70340074906367  0.000000  0.000000  0.000000  -32.59422795718527  10.842018871107173  16.18728494798171  54.822514636244996  17.337336507783473  10.33996984933113  1.781380688629123  51.418539019553215  3.5551965811811366  12.493618580962817  120.000000
5.743565543071161  0.000000  0.000000  0.000000  -31.674025778928808  10.53240343818553  15.130467427734965  54.75200412002394  17.07878579662962  9.535555552788681  2.1115120288014846  49.13763495379879  3.7015381986460367  12.400510573069303  120.000000
5.7837303370786515  0.000000  0.000000  0.000000  -30.727453889258708  10.177110007769944  13.983109557888053  54.68739054554713  16.78270485064604  8.707914518928149  2.468200064341727  46.634198187352126  3.8757602496549666  12.337236076198874  120.000000
5.823895131086142  0.000000  0.000000  0.000000  -29.7811082811573  9.775596054548888  12.767992873879221  54.629044029829736  16.44930878318986  7.876553722634107  2.8605208359674195  43.94669185589727  4.087731477224336  12.296374129964885  120.000000
5.864059925093633  0.000000  0.000000  0.000000  -28.859470409895113  9.329772930268874  11.509446322776688  54.57803411638794  16.08033313540984  7.061717282464632  3.2987165176960653  41.115605728771314  4.3488664813644835  12.268988250859925  120.000000
5.904224719101124  0.000000  0.000000  0.000000  -27.984034409823582  8.844256833194574  10.232002453466098  54.53659622673984  15.678958843440164  6.28340087200752  3.792539578959735  38.180886114173965  4.671168547544734  12.246380596478481  120.000000
5.944389513108614  0.000000  0.000000  0.000000  -27.17339687453375  8.326913050885432  8.959556182755554  54.507925984212285  15.250059857026175  5.559889053963267  4.349428694260072  35.18051626636677  5.066678465510105  12.221137866424165  120.000000
5.984554307116105  0.000000  0.000000  0.000000  -26.44323680840379  7.788819576385541  7.7148813988275755  54.495573716310375  14.800522360072232  4.906819325984003  4.972990099044558  32.14984432309841  5.547183257855945  12.188093458660134  120.000000
6.024719101123596  0.000000  0.000000  0.000000  -25.806156150888675  7.243735303284213  6.519194564283218  54.50307487700474  14.339056725115658  4.336644578541923  5.662030517032909  29.12126001979976  6.124020104909502  12.144926346896735  120.000000
6.064883895131086  0.000000  0.000000  0.000000  -25.27139496603614  6.707335569457326  5.39166045079095  54.5338280605614  13.875943901756592  3.8581580943939286  6.409962659490425  26.123951488249496  6.807946138605648  12.092599516509935  120.000000
6.1050486891385765  0.000000  0.000000  0.000000  -24.84482157136073  6.196198928911592  4.348994565385252  54.59093418928312  13.422476965191233  3.4763114166354154  7.204498146038185  23.18393478487649  7.60920294469382  12.035630719875623  120.000000
6.145213483146067  0.000000  0.000000  0.000000  -24.528785170598308  5.726603890714526  3.4049753968416234  54.677084499335585  12.990325754939477  3.192171534374161  8.027148347741436  20.324029397342954  8.538172841752308  11.981879101669785  120.000000
6.185378277153558  0.000000  0.000000  0.000000  -24.32183766537167  5.313087278362306  2.5701396227885396  54.794789216820895  12.59072107064584  3.003360728507903  8.853663193386037  17.563887469913514  9.605665661119103  11.94214047544344  120.000000
6.225543071161049  0.000000  0.000000  0.000000  -24.218074619897408  4.967357832531823  1.8520737384463597  54.947156033001654  12.233012016063546  2.9046048619468983  9.656838464885901  14.919804540013336  10.821250759068612  11.929508755259208  120.000000
6.265707865168539  0.000000  0.000000  0.000000  -24.206882284320788  4.696706634010205  1.2555801916352054  55.13809654907377  11.923570702477624  2.888234401785977  10.409355407008471  12.404443561723832  12.191515469210843  11.958356150664674  120.000000
